<?xml version="1.0" encoding="utf-8"?>
<!-- Generator: Adobe Illustrator 25.2.3, SVG Export Plug-In . SVG Version: 6.00 Build 0)  -->
<svg version="1.1" id="Layer_1" xmlns="http://www.w3.org/2000/svg" xmlns:xlink="http://www.w3.org/1999/xlink" x="0px" y="0px"
	 viewBox="0 0 266.8 77" style="enable-background:new 0 0 266.8 77;" xml:space="preserve">
<style type="text/css">
	.st0{fill:#FBF6F3;}
	.st1{fill:#F5E5D5;}
	.st2{fill:#E79980;}
	.st3{fill:#033148;}
	.st4{clip-path:url(#SVGID_2_);fill:#FFFFFF;}
	.st5{opacity:0.69;clip-path:url(#SVGID_2_);}
	.st6{fill:#C2B0D4;}
	.st7{fill:#1EAEDB;}
	.st8{fill:#A2D195;}
	.st9{fill:#F6EA33;}
	.st10{fill:#FBBB15;}
	.st11{fill:#F07665;}
	.st12{fill:#FFFFFF;}
	.st13{fill:none;stroke:#FFFFFF;stroke-width:2;stroke-miterlimit:10;}
	.st14{fill:#093249;}
	.st15{fill:#19B0DB;}
	.st16{clip-path:url(#SVGID_4_);}
	.st17{fill:none;}
	.st18{fill:#F8E7D6;}
	.st19{fill:#DEAE89;}
</style>
<rect class="st18" width="266.8" height="77"/>
<g>
	<g>
		<path class="st19" d="M40.7,26.8c-0.2,0.3-0.4,0.6-0.7,0.8l-0.4,0.4c-0.1,0.2-0.3,0.4-0.4,0.6c-0.5,0.8-0.7,1.9-0.6,2.8
			c0.2,1.8,1,3.3,1.9,4.6c0.4,0.7,0.9,1.3,1.4,1.9c0.5,0.6,1,1.2,1.6,1.8c1.1,1.1,2.1,2.2,3.3,3.3c1,0.8,2,1.7,3.2,2.3
			c0.6,0.3,1.3,0.6,2,0.8c0.7,0.2,1.6,0.2,2.4,0c0.8-0.2,1.5-0.8,1.9-1.1c0.5-0.3,1-0.7,1.5-0.9c0.5-0.2,0.9-0.4,1.3-0.4
			c0.4,0,0.8,0.1,1.2,0.3c0.9,0.5,1.7,1.3,2.6,2.2c0.9,0.9,1.7,1.8,2.5,2.7c0.7,0.9,1.2,1.8,1.1,2.6c-0.1,0.8-0.8,1.7-1.6,2.6
			c-0.1,0.1-0.2,0.2-0.3,0.3c-1,1.1-1.1,2.2-0.4,2.1c0.7-0.1,2.2-1.4,3.1-2.5c0.6-0.8,1.1-1.8,1-2.9c0-1.2-0.6-2.1-1.2-2.9
			c-0.8-1.1-1.8-2.1-2.7-3c-0.9-0.9-1.9-1.9-3.2-2.7c-0.7-0.4-1.5-0.6-2.3-0.6c-0.8,0-1.6,0.3-2.2,0.7c-0.6,0.3-1.2,0.7-1.8,1.1
			L54.8,44l-0.3,0.2c-0.2,0.1-0.5,0.2-0.7,0.3c-1.1,0.2-2.3-0.3-3.4-1c-1.1-0.7-2.2-1.6-3.1-2.5c-1-1-1.9-2-2.8-3
			c-0.9-1-1.7-2-2.4-3.2c-0.7-1.1-1.3-2.3-1.4-3.4c-0.1-0.5,0-1,0.2-1.5c0-0.1,0.1-0.2,0.2-0.3c0.1-0.1,0.1-0.2,0.3-0.3
			c0.2-0.3,0.5-0.5,0.7-0.8c0.5-0.6,0.9-1.2,1.3-2c0.4-0.8,0.5-1.8,0.3-2.7c-0.5-1.8-1.5-2.9-2.5-4c-1-1.1-1.9-2.2-3-3.2
			c-0.6-0.5-1.2-1-2.1-1.4c-0.8-0.4-1.9-0.4-2.7-0.1c-0.4,0.1-0.8,0.3-1.2,0.5c-0.3,0.2-0.7,0.4-1,0.6c-0.2,0.1-0.7,0.5-1.2,1
			c-0.6,0.6-1.3,1.2-2,2.1c-0.7,0.9-1.1,2-1.3,3c-0.2,1-0.3,1.8-0.2,2.4c0,1.3,0.2,2.4,0.6,3.7l1.7-0.5c-0.6-2.3-0.8-4.7,0.2-6.6
			c0.1-0.2,0.3-0.5,0.4-0.7c0.1-0.2,0.3-0.4,0.5-0.6c0.4-0.4,0.8-0.9,1.3-1.3c0.9-0.8,1.8-1.6,2.7-1.8c0.5-0.2,0.9-0.2,1.4,0
			c0.5,0.2,1,0.5,1.4,0.9c1,0.8,1.9,1.9,2.8,2.9c0.5,0.5,0.9,1,1.3,1.5c0.4,0.5,0.7,1,0.9,1.5c0.2,0.5,0.2,1,0,1.5
			C41.4,25.7,41.1,26.3,40.7,26.8z"/>
		<path class="st19" d="M46.5,51.1c-0.8-0.7-1.6-1.3-2.3-1.8c-0.3-0.3-0.6-0.5-0.9-0.8c-0.9-0.8-1.7-1.6-2.5-2.5
			c-0.8-0.9-1.6-1.7-2.4-2.6c-1.9-2.1-3.7-4.3-5.2-6.7c-0.5-0.8-1-1.6-1.5-2.4c-1.3-2.2-2.4-4.3-3.1-6.5l-1.7,0.5c0.3,1,0.7,2,1.2,3
			c0.5,1.2,1.1,2.4,1.8,3.6c0.8,1.4,1.6,2.7,2.5,4c0.7,1,1.4,2,2.2,2.9c1,1.3,2.1,2.6,3.2,3.9c0.6,0.6,1.2,1.2,1.7,1.8
			c0.6,0.6,1.2,1.2,1.8,1.8c2.5,2.3,5.1,4.5,8,6.3c1.7,1,3.4,1.9,5.3,2.6c0.7,0.3,1.8,0.6,2.8,0.8c1,0.2,2.1,0.1,2.8-0.1
			c0.2-0.1,0.4-0.1,0.7-0.2c0.8-0.3,1.4-0.8,1.5-1.2c0-0.4-0.4-0.4-1.3-0.3c-1.3,0.2-3,0-4.6-0.4C52.8,55.7,49.4,53.6,46.5,51.1z"/>
	</g>
</g>
<g>
	<g>
		<path class="st19" d="M91.5,27l0.5-0.8c0.2-0.2,0.4-0.3,0.6-0.2c0.9,0.7,1.6,1.3,3,1.3c1.3,0,2.1-0.8,2.1-1.8c0-1.1-1-1.9-2.9-2.6
			c-1.9-0.8-3.5-1.8-3.5-4c0-1.5,1.1-3.5,4.2-3.5c1.9,0,3.3,1,3.5,1.1c0.2,0.1,0.3,0.4,0.1,0.6l-0.5,0.7c-0.2,0.2-0.4,0.4-0.7,0.2
			c-0.7-0.5-1.5-0.9-2.6-0.9c-1.6,0-2.1,1-2.1,1.7c0,1.1,0.8,1.7,2.4,2.4c2.2,0.9,4.1,1.9,4.1,4.3c0,2-1.8,3.6-4.2,3.6
			c-2.3,0-3.8-1.2-4.1-1.5C91.4,27.4,91.3,27.3,91.5,27z"/>
		<path class="st19" d="M103.9,33c0,0.2-0.2,0.4-0.5,0.4h-1.1c-0.2,0-0.4-0.2-0.4-0.4V20.5c0-0.2,0.2-0.4,0.4-0.4h0.5
			c0.2,0,0.3,0.1,0.4,0.3l0.2,0.6c0.2-0.2,1.1-1,2.8-1c2.4,0,4.1,2.1,4.1,4.6c0,2.6-1.8,4.6-4.2,4.6c-1.1,0-2.1-0.5-2.2-0.6V33z
			 M105.9,27.3c1.4,0,2.6-1.2,2.6-2.8c0-1.6-1-2.8-2.5-2.8c-1.3,0-2,1-2.1,1.2v3.7C103.9,26.6,104.7,27.3,105.9,27.3z"/>
		<path class="st19" d="M116.4,19.9c2.3,0,4,1.7,4,4c0,0.2,0,0.5,0,0.6c0,0.2-0.2,0.4-0.4,0.4h-6.1c0,1.2,1.1,2.4,2.6,2.4
			c1,0,1.6-0.4,2.1-0.7c0.2-0.1,0.4-0.2,0.5,0l0.5,0.8c0.2,0.2,0.2,0.4,0,0.6c-0.6,0.6-1.8,1.1-3.2,1.1c-2.7,0-4.4-2.1-4.4-4.6
			C112.1,22,113.8,19.9,116.4,19.9z M118.6,23.5c0-1.1-0.9-2-2.2-2c-1.4,0-2.2,0.9-2.4,2H118.6z"/>
		<path class="st19" d="M125.4,23.3c0.9,0,1.8,0.3,1.8,0.3c0-1.4-0.3-2-1.4-2c-1,0-2,0.3-2.5,0.4c-0.3,0.1-0.4-0.1-0.5-0.4l-0.2-0.7
			c-0.1-0.3,0.1-0.4,0.3-0.5c0.2-0.1,1.4-0.5,3-0.5c2.8,0,3.1,1.7,3.1,3.9v4.7c0,0.2-0.2,0.4-0.4,0.4H128c-0.2,0-0.3-0.1-0.4-0.3
			l-0.2-0.6c-0.5,0.5-1.3,1.1-2.7,1.1c-1.7,0-2.8-1.1-2.8-2.9C121.9,24.5,123.1,23.3,125.4,23.3z M125.1,27.5c0.9,0,1.8-0.6,2-1.1
			V25c-0.1-0.1-0.8-0.3-1.6-0.3c-1,0-1.8,0.5-1.8,1.4C123.7,26.9,124.2,27.5,125.1,27.5z"/>
		<path class="st19" d="M131.7,16c0-0.2,0.2-0.4,0.4-0.4h1.1c0.2,0,0.4,0.2,0.4,0.4v7.4l3.4-3.1c0.2-0.1,0.3-0.3,0.6-0.3h1.4
			c0.4,0,0.4,0.4,0.2,0.6l-3.6,3.3l3.7,4.3c0.2,0.2,0.1,0.6-0.2,0.6h-1.6c-0.2,0-0.3-0.1-0.4-0.2l-3.5-4.1v3.8
			c0,0.2-0.2,0.4-0.4,0.4h-1.1c-0.2,0-0.4-0.2-0.4-0.4V16z"/>
		<path class="st19" d="M146.3,21.7h-1c-0.2,0-0.4-0.2-0.4-0.4v-0.8c0-0.2,0.2-0.4,0.4-0.4h1v-2.5c0-0.2,0.2-0.4,0.4-0.4h1.1
			c0.2,0,0.4,0.2,0.4,0.4v2.5h2.3c0.2,0,0.4,0.2,0.4,0.4v0.8c0,0.2-0.2,0.4-0.4,0.4h-2.3v4.7c0,0.7,0.3,0.9,0.7,0.9
			c0.6,0,1.1-0.2,1.4-0.4c0.3-0.2,0.4,0,0.5,0.2l0.3,0.9c0.1,0.2,0,0.4-0.2,0.5c-0.4,0.2-1.4,0.6-2.4,0.6c-1.7,0-2.2-1.1-2.2-2.6
			V21.7z"/>
		<path class="st19" d="M156.9,19.9c2.5,0,4.5,2.1,4.5,4.6c0,2.5-2,4.6-4.5,4.6c-2.5,0-4.5-2.1-4.5-4.6
			C152.4,22,154.5,19.9,156.9,19.9z M156.9,27.3c1.5,0,2.6-1.2,2.6-2.8c0-1.6-1.1-2.8-2.6-2.8c-1.5,0-2.6,1.2-2.6,2.8
			C154.3,26.1,155.5,27.3,156.9,27.3z"/>
		<path class="st19" d="M171.1,23.3c0.9,0,1.8,0.3,1.8,0.3c0-1.4-0.3-2-1.4-2c-1,0-2,0.3-2.5,0.4c-0.3,0.1-0.4-0.1-0.5-0.4l-0.2-0.7
			c-0.1-0.3,0.1-0.4,0.3-0.5c0.2-0.1,1.4-0.5,3-0.5c2.8,0,3.1,1.7,3.1,3.9v4.7c0,0.2-0.2,0.4-0.4,0.4h-0.6c-0.2,0-0.3-0.1-0.4-0.3
			l-0.2-0.6c-0.5,0.5-1.3,1.1-2.7,1.1c-1.7,0-2.8-1.1-2.8-2.9C167.6,24.5,168.8,23.3,171.1,23.3z M170.8,27.5c0.9,0,1.8-0.6,2-1.1
			V25c-0.1-0.1-0.8-0.3-1.6-0.3c-1,0-1.8,0.5-1.8,1.4C169.5,26.9,169.9,27.5,170.8,27.5z"/>
		<path class="st19" d="M181.7,27l0.5-0.8c0.2-0.2,0.4-0.3,0.6-0.2c0.9,0.7,1.6,1.3,3,1.3c1.3,0,2.1-0.8,2.1-1.8
			c0-1.1-1-1.9-2.9-2.6c-1.9-0.8-3.5-1.8-3.5-4c0-1.5,1.1-3.5,4.2-3.5c1.9,0,3.3,1,3.5,1.1c0.2,0.1,0.3,0.4,0.1,0.6l-0.5,0.7
			c-0.2,0.2-0.4,0.4-0.7,0.2c-0.7-0.5-1.5-0.9-2.6-0.9c-1.6,0-2.1,1-2.1,1.7c0,1.1,0.8,1.7,2.4,2.4c2.2,0.9,4.1,1.9,4.1,4.3
			c0,2-1.8,3.6-4.2,3.6c-2.3,0-3.8-1.2-4.1-1.5C181.7,27.4,181.5,27.3,181.7,27z"/>
		<path class="st19" d="M194.2,33c0,0.2-0.2,0.4-0.5,0.4h-1.1c-0.2,0-0.4-0.2-0.4-0.4V20.5c0-0.2,0.2-0.4,0.4-0.4h0.5
			c0.2,0,0.3,0.1,0.4,0.3l0.2,0.6c0.2-0.2,1.1-1,2.8-1c2.4,0,4.1,2.1,4.1,4.6c0,2.6-1.8,4.6-4.2,4.6c-1.1,0-2.1-0.5-2.2-0.6V33z
			 M196.2,27.3c1.4,0,2.6-1.2,2.6-2.8c0-1.6-1-2.8-2.5-2.8c-1.3,0-2,1-2.1,1.2v3.7C194.1,26.6,195,27.3,196.2,27.3z"/>
		<path class="st19" d="M202.9,20.5c0-0.2,0.2-0.4,0.4-0.4h0.5c0.2,0,0.3,0.1,0.4,0.3l0.2,0.8c0.2-0.2,1.1-1.3,2.7-1.3
			c0.8,0,1.9,0.2,1.6,0.8l-0.5,0.9c-0.1,0.2-0.3,0.3-0.5,0.2c-0.1-0.1-0.5-0.2-0.8-0.2c-1.3,0-2,1-2.1,1.2v5.6
			c0,0.4-0.2,0.4-0.6,0.4h-0.9c-0.2,0-0.4-0.2-0.4-0.4V20.5z"/>
		<path class="st19" d="M210,16.9c0-0.7,0.6-1.3,1.3-1.3c0.7,0,1.3,0.6,1.3,1.3c0,0.7-0.6,1.3-1.3,1.3C210.5,18.2,210,17.6,210,16.9
			z M210.3,20.5c0-0.2,0.2-0.4,0.4-0.4h1.1c0.2,0,0.4,0.2,0.4,0.4v7.9c0,0.2-0.2,0.4-0.4,0.4h-1.1c-0.2,0-0.4-0.2-0.4-0.4V20.5z"/>
		<path class="st19" d="M214.9,20.5c0-0.2,0.2-0.4,0.4-0.4h0.5c0.2,0,0.3,0.1,0.4,0.3l0.3,0.8c0.2-0.2,1.2-1.2,2.9-1.2
			c2.7,0,3.4,1.9,3.4,4.1v4.4c0,0.2-0.2,0.4-0.4,0.4h-1.1c-0.2,0-0.4-0.2-0.4-0.4V24c0-1.4-0.6-2.3-1.7-2.3c-1.4,0-2.2,1-2.3,1.3
			v5.5c0,0.3-0.2,0.4-0.5,0.4h-1c-0.2,0-0.4-0.2-0.4-0.4V20.5z"/>
		<path class="st19" d="M233.3,28.9c0,2.7-1.8,4.1-4.1,4.1c-1.5,0-2.7-0.7-3-1.1c-0.2-0.1-0.2-0.4-0.1-0.5l0.5-0.8
			c0.1-0.2,0.4-0.3,0.6-0.1c0.3,0.2,1,0.8,2.1,0.8c1.2,0,2.2-0.6,2.2-2.4v-0.5c-0.2,0.1-1.1,0.6-2.2,0.6c-2.4,0-4.2-2-4.2-4.6
			c0-2.5,1.7-4.6,4.1-4.6c1.6,0,2.6,0.9,2.8,1l0.2-0.6c0.1-0.2,0.1-0.3,0.3-0.3h0.5c0.2,0,0.4,0.2,0.4,0.4V28.9z M229.4,27.3
			c1.2,0,2-0.7,2-0.7v-3.6c-0.2-0.3-0.9-1.2-2.1-1.2c-1.5,0-2.5,1.3-2.5,2.8C226.8,26,228,27.3,229.4,27.3z"/>
		<path class="st19" d="M94.4,40.4h-3.1c-0.2,0-0.4-0.2-0.4-0.4v-1.1c0-0.2,0.2-0.4,0.4-0.4h8.2c0.2,0,0.4,0.2,0.4,0.4V40
			c0,0.2-0.2,0.4-0.4,0.4h-3.1v11.2c0,0.2-0.2,0.4-0.4,0.4h-1.3c-0.2,0-0.4-0.2-0.4-0.4V40.4z"/>
		<path class="st19" d="M104.1,42.9c2.3,0,4,1.7,4,4c0,0.2,0,0.5,0,0.6c0,0.2-0.2,0.4-0.4,0.4h-6.1c0,1.2,1.1,2.4,2.6,2.4
			c1,0,1.6-0.4,2.1-0.7c0.2-0.1,0.4-0.2,0.5,0l0.5,0.8c0.2,0.2,0.2,0.4,0,0.6c-0.6,0.6-1.8,1.1-3.2,1.1c-2.7,0-4.4-2.1-4.4-4.6
			C99.7,45,101.4,42.9,104.1,42.9z M106.2,46.5c0-1.1-0.9-2-2.2-2c-1.4,0-2.2,0.9-2.4,2H106.2z"/>
		<path class="st19" d="M113,46.3c0.9,0,1.8,0.3,1.8,0.3c0-1.4-0.3-2-1.4-2c-1,0-2,0.3-2.5,0.4c-0.3,0.1-0.4-0.1-0.5-0.4l-0.2-0.7
			c-0.1-0.3,0.1-0.4,0.3-0.5c0.2-0.1,1.4-0.5,3-0.5c2.8,0,3.1,1.7,3.1,3.9v4.7c0,0.2-0.2,0.4-0.4,0.4h-0.6c-0.2,0-0.3-0.1-0.4-0.3
			L115,51c-0.5,0.5-1.3,1.1-2.7,1.1c-1.7,0-2.8-1.1-2.8-2.9C109.5,47.5,110.8,46.3,113,46.3z M112.7,50.5c0.9,0,1.8-0.6,2-1.1V48
			c-0.1-0.1-0.8-0.3-1.6-0.3c-1,0-1.8,0.5-1.8,1.4C111.4,49.9,111.8,50.5,112.7,50.5z"/>
		<path class="st19" d="M119.3,43.5c0-0.2,0.2-0.4,0.4-0.4h0.4c0.2,0,0.3,0.1,0.4,0.3l0.2,0.8c0.2-0.2,1.1-1.2,2.8-1.2
			c1.3,0,2,0.5,2.7,1.4c0.2-0.2,1.3-1.4,3-1.4c2.7,0,3.3,1.9,3.3,4.1v4.4c0,0.2-0.2,0.4-0.4,0.4h-1.1c-0.3,0-0.4-0.2-0.4-0.4V47
			c0-1.4-0.5-2.3-1.7-2.3c-1.3,0-2,0.9-2.1,1c0,0.2,0.1,0.7,0.1,1.2v4.5c0,0.2-0.2,0.4-0.4,0.4h-1.1c-0.2,0-0.4-0.2-0.4-0.4V47
			c0-1.4-0.5-2.3-1.7-2.3c-1.3,0-2,1-2.1,1.3v5.5c0,0.2-0.2,0.4-0.4,0.4h-1.1c-0.2,0-0.4-0.2-0.4-0.4V43.5z"/>
		<path class="st19" d="M141.9,38.7c0-0.2,0.2-0.3,0.3-0.3h0.3c0.1,0,0.3,0.1,0.3,0.2l4,9.7h0.1l4-9.7c0-0.1,0.2-0.2,0.3-0.2h0.3
			c0.2,0,0.3,0.1,0.3,0.3l2.3,12.8c0.1,0.3-0.1,0.4-0.3,0.4h-1.2c-0.2,0-0.3-0.1-0.4-0.3l-1.4-8.5c0,0-0.1,0-0.1,0l-3.4,8.7
			c0,0.1-0.2,0.2-0.3,0.2h-0.3c-0.2,0-0.3-0.1-0.3-0.2l-3.4-8.7c0,0-0.1,0-0.1,0l-1.4,8.5c0,0.1-0.2,0.3-0.3,0.3h-1.2
			c-0.3,0-0.4-0.2-0.4-0.4L141.9,38.7z"/>
		<path class="st19" d="M160.1,42.9c2.3,0,4,1.7,4,4c0,0.2,0,0.5,0,0.6c0,0.2-0.2,0.4-0.4,0.4h-6.1c0,1.2,1.1,2.4,2.6,2.4
			c1,0,1.6-0.4,2.1-0.7c0.2-0.1,0.4-0.2,0.5,0l0.5,0.8c0.2,0.2,0.2,0.4,0,0.6c-0.6,0.6-1.8,1.1-3.2,1.1c-2.7,0-4.4-2.1-4.4-4.6
			C155.7,45,157.4,42.9,160.1,42.9z M162.2,46.5c0-1.1-0.9-2-2.2-2c-1.4,0-2.2,0.9-2.4,2H162.2z"/>
		<path class="st19" d="M166.2,43.5c0-0.2,0.2-0.4,0.4-0.4h0.4c0.2,0,0.3,0.1,0.4,0.3l0.2,0.8c0.2-0.2,1.1-1.2,2.8-1.2
			c1.3,0,2,0.5,2.7,1.4c0.2-0.2,1.3-1.4,3-1.4c2.7,0,3.3,1.9,3.3,4.1v4.4c0,0.2-0.2,0.4-0.4,0.4H178c-0.3,0-0.4-0.2-0.4-0.4V47
			c0-1.4-0.5-2.3-1.7-2.3c-1.3,0-2,0.9-2.1,1c0,0.2,0.1,0.7,0.1,1.2v4.5c0,0.2-0.2,0.4-0.4,0.4h-1.1c-0.2,0-0.4-0.2-0.4-0.4V47
			c0-1.4-0.5-2.3-1.7-2.3c-1.3,0-2,1-2.1,1.3v5.5c0,0.2-0.2,0.4-0.4,0.4h-1.1c-0.2,0-0.4-0.2-0.4-0.4V43.5z"/>
		<path class="st19" d="M182.1,39c0-0.2,0.2-0.4,0.4-0.4h1.1c0.2,0,0.4,0.2,0.4,0.4v4.4c0.2-0.1,1.1-0.5,2.2-0.5
			c2.4,0,4.3,2,4.3,4.6c0,2.5-1.8,4.6-4.1,4.6c-1.7,0-2.9-1.2-2.9-1.2l-0.2,0.6c-0.1,0.2-0.2,0.4-0.4,0.4h-0.5
			c-0.2,0-0.4-0.2-0.4-0.4V39z M186.2,50.3c1.4,0,2.5-1.3,2.5-2.8c0-1.5-1.2-2.8-2.6-2.8c-1.1,0-2,0.5-2,0.5V49
			C184.1,49.3,184.8,50.3,186.2,50.3z"/>
		<path class="st19" d="M196.6,42.9c2.3,0,4,1.7,4,4c0,0.2,0,0.5,0,0.6c0,0.2-0.2,0.4-0.4,0.4h-6.1c0,1.2,1.1,2.4,2.6,2.4
			c1,0,1.6-0.4,2.1-0.7c0.2-0.1,0.4-0.2,0.5,0l0.5,0.8c0.2,0.2,0.2,0.4,0,0.6c-0.6,0.6-1.8,1.1-3.2,1.1c-2.7,0-4.4-2.1-4.4-4.6
			C192.2,45,194,42.9,196.6,42.9z M198.7,46.5c0-1.1-0.9-2-2.2-2c-1.4,0-2.2,0.9-2.4,2H198.7z"/>
		<path class="st19" d="M202.7,43.5c0-0.2,0.2-0.4,0.4-0.4h0.5c0.2,0,0.3,0.1,0.4,0.3l0.2,0.8c0.2-0.2,1.1-1.3,2.7-1.3
			c0.8,0,1.9,0.2,1.6,0.8l-0.5,0.9c-0.1,0.2-0.3,0.3-0.5,0.2c-0.1-0.1-0.5-0.2-0.8-0.2c-1.3,0-2,1-2.1,1.2v5.6
			c0,0.4-0.2,0.4-0.6,0.4h-0.9c-0.2,0-0.4-0.2-0.4-0.4V43.5z"/>
	</g>
</g>
</svg>
