<?xml version="1.0" encoding="utf-8"?>
<!-- Generator: Adobe Illustrator 25.2.3, SVG Export Plug-In . SVG Version: 6.00 Build 0)  -->
<svg version="1.1" id="Layer_1" xmlns="http://www.w3.org/2000/svg" xmlns:xlink="http://www.w3.org/1999/xlink" x="0px" y="0px"
	 viewBox="0 0 311.2 376.3" style="enable-background:new 0 0 311.2 376.3;" xml:space="preserve">
<style type="text/css">
	.st0{fill:#FBF6F3;}
	.st1{fill:#F5E5D5;}
	.st2{fill:#E79980;}
	.st3{fill:#033148;}
	.st4{fill:none;}
	.st5{font-family:'BrandonText-Bold';}
	.st6{font-size:28px;}
	.st7{clip-path:url(#SVGID_2_);fill:#FFFFFF;}
	.st8{opacity:0.69;clip-path:url(#SVGID_2_);}
	.st9{fill:#C2B0D4;}
	.st10{fill:#1EAEDB;}
	.st11{fill:#A2D195;}
	.st12{fill:#F6EA33;}
	.st13{fill:#FBBB15;}
	.st14{fill:#F07665;}
	.st15{fill:#FFFFFF;}
	.st16{fill:none;stroke:#FFFFFF;stroke-width:2;stroke-miterlimit:10;}
	.st17{fill:#093249;}
	.st18{fill:#19B0DB;}
	.st19{clip-path:url(#SVGID_4_);}
	.st20{fill:#F8E7D6;}
	.st21{fill:#DEAE89;}
</style>
<g>
	<g>
		<g>
			<g>
				<path class="st2" d="M92.2,119.4l-2.8,2.4c-1.5,1.3-2.9,2.8-4.3,4.2c0,0,0,0-0.1,0.1c-0.1,0.3,0.4,1.1,0.8,1.4
					c0.4,0.2,0.7,0,1-0.1c0.3-0.2,0.6-0.5,0.9-0.7c0.9-0.6,1.5-1.5,2.2-2.2c1.6-1.6,3.6-2.7,5.1-4.4c0.1-0.1,0.1,0,0.2-0.2
					c0,0,0,0,0.1-0.1c0,0,0.1,0,0.1,0c0,0,0,0,0.1,0c0,0,0,0,0.1,0c0.1,0.1,0.2,0.1,0.2,0.2c0.3,0.2,0.7,0.5,0.8,0.7
					c0.2,0.2,0.3,0.4,0.5,0.5l1.5-1.5c-0.4-0.3-0.7-0.7-1.1-1.1l-1.7-1.7l-0.5-0.5l-1.9,1.9C92.9,118.7,92.5,119.1,92.2,119.4z"/>
				<path class="st2" d="M102.6,124c-0.1-0.2-0.3-0.3-0.5-0.4c-0.1-0.1-0.1-0.1-0.2-0.2l-0.9-1.1c-0.4-0.4-0.8-0.8-1.1-1.3
					c-0.1-0.2-0.2-0.3-0.4-0.4c-0.4-0.4-0.8-0.7-1.2-1l-1.5,1.5c0.2,0.1,0.4,0.2,0.5,0.4c0.2,0.2,0.3,0.4,0.5,0.6l0.6,0.7
					c0.1,0.2,0.3,0.4,0.5,0.6c0.7,1.1,1.7,2.1,2.7,2.9l0.9,0.7c0.2,0.2,0.5,0.6,0.9,0.6l0.2,0c0.3,0,0.5-0.1,0.8-0.3
					c0.3-0.2,0.5-0.6,0.4-0.8c-0.1-0.4-0.3-0.6-0.6-0.9C103.7,125.1,103.1,124.7,102.6,124z"/>
			</g>
		</g>
		<g>
			<g>
				<path class="st2" d="M96.3,124.9c0-0.8,0.1-1.5,0.2-2.3c0.1-1.3,0-2.5,0-3.8c0,0,0,0,0-0.1c-0.1-0.2-1.1-0.3-1.6-0.2
					c-0.4,0.1-0.5,0.3-0.6,0.5c0,0.2-0.1,0.4-0.1,0.7c-0.1,0.7,0.1,1.3,0.1,2c0,1.4-0.6,2.8-0.3,4.2c0,0.4,0,0.7,0.1,1.1
					c0,0.1,0.1,0.2,0,0.3c0,0.1,0.2,0.9,0.1,1.2c0,0.1-0.1,0.3,0,0.5h2.1c0-0.6,0-1.3,0-1.9C96.3,126.3,96.2,125.6,96.3,124.9z"/>
				<path class="st2" d="M96.2,132.7c0-0.1,0-0.3-0.1-0.4c0-0.1,0-0.1,0-0.2c0-0.3,0.1-0.6,0.1-0.9c0-0.4,0-0.7,0.2-1.1
					c0-0.1,0.1-0.2,0.1-0.4c0-0.3-0.1-0.6-0.1-0.9h-2.1c0.1,0.1,0.1,0.3,0.1,0.4c0,0.2,0,0.3-0.1,0.5c0,0.2-0.1,0.4-0.1,0.6
					c0,0.1,0,0.3-0.1,0.4c-0.3,0.8-0.3,1.7-0.2,2.5c0,0.2,0.1,0.5,0.1,0.7c0,0.2-0.1,0.5,0.2,0.7c0.1,0,0.1,0.1,0.2,0.1
					c0.2,0.1,0.4,0.2,0.8,0.2c0.4,0,0.7,0,0.9-0.2c0.2-0.2,0.2-0.4,0.2-0.6C96.2,133.7,96.1,133.2,96.2,132.7z"/>
			</g>
		</g>
		<g>
			<g>
				<path class="st2" d="M86.9,136.4c-2.8,2.3-4.6,6-4.5,9.7c0,3,1.2,6.1,3.2,8.3c2,2.2,4.9,3.7,7.9,4c0.1,0,0.2,0,0.3,0
					c1-0.1,1.4-1.1,1.1-1.5c-0.2-0.2-0.5-0.4-0.8-0.5c-0.4-0.1-0.7-0.2-1.1-0.3c-0.9-0.2-1.7-0.5-2.5-1c-2.2-1.2-4.3-3.1-5.2-5.6
					c-1-2.6-0.7-5.7,0.5-8.1c1.3-2.4,3.4-4.3,6-5.3c1.3-0.4,2.7-0.6,4.2-0.6c0.3,0,0.7,0,1,0.1c0.2,0.1,1.1,0.2,2,0.5
					c0.9,0.4,1.9,0.9,2.3,1.2c0.5,0.4,0.8,0.8,1.3,1.2l1.6-1.5c-2.1-2.2-5-3.6-8-3.9C92.9,133.1,89.5,134.3,86.9,136.4z"/>
				<path class="st2" d="M104.6,153.9c0.4-0.5,0.8-1,1-1.5l0.4-0.6c0.7-1.2,1.2-2.6,1.5-4c0.3-1.7,0.2-3.4-0.1-5.1
					c-0.1-0.6-0.3-1.1-0.5-1.7c-0.6-1.5-1.5-2.7-2.6-3.7l-1.6,1.5c0.2,0.2,0.4,0.3,0.6,0.5c0.2,0.2,0.3,0.4,0.5,0.6
					c0.4,0.6,0.7,1.1,0.9,1.8c0.2,0.4,0.2,0.7,0.4,1.1c0.1,0.4,0.2,0.8,0.2,1.1l0.1,0.9c0,0.3,0,0.6,0,0.9c-0.2,3.2-1.7,6.3-4.2,8.3
					c-0.7,0.6-1.5,1.1-2.4,1.5c-0.7,0.3-1.9,0.5-2.5,0.9c-0.1,0.1-0.2,0.1-0.3,0.2c-0.4,0.2-0.7,0.5-0.8,0.9
					c-0.1,0.4,0.1,0.7,0.7,0.8c0.9,0.2,2-0.1,3-0.3c1.1-0.4,2.2-1,3.1-1.6C102.9,155.6,103.8,154.8,104.6,153.9z"/>
			</g>
		</g>
	</g>
	<g>
		<g>
			<g>
				<path class="st2" d="M215.9,151.4c0,0.8-0.1,1.7-0.2,2.5c-0.1,1.4,0,2.7,0,4.1c0,0,0,0,0,0.1c0.1,0.2,1.1,0.3,1.6,0.2
					c0.4-0.1,0.5-0.3,0.6-0.5c0-0.2,0.1-0.5,0.1-0.7c0.1-0.7-0.1-1.4-0.1-2.2c0-1.5,0.6-3,0.3-4.6c0-0.4,0-0.8-0.1-1.2
					c0-0.1-0.1-0.2,0-0.3c0-0.1-0.2-1-0.1-1.3c0-0.2,0.1-0.3,0-0.5h-2.1c0,0.7,0,1.4,0,2.1C215.8,149.9,216,150.7,215.9,151.4z"/>
				<path class="st2" d="M215.9,142.9c0,0.1,0,0.3,0.1,0.4c0,0.1,0,0.1,0,0.2c0,0.3-0.1,0.7-0.1,1c0,0.4,0,0.8-0.2,1.2
					c0,0.1-0.1,0.3-0.1,0.4c0,0.4,0.1,0.7,0.1,1h2.1c-0.1-0.1-0.1-0.3-0.1-0.4c0-0.2,0-0.4,0.1-0.5c0-0.2,0.1-0.4,0.1-0.6
					c0-0.2,0-0.3,0.1-0.5c0.3-0.9,0.3-1.8,0.2-2.7c0-0.3-0.1-0.5-0.1-0.8c0-0.2,0.1-0.6-0.2-0.7c-0.1,0-0.1-0.1-0.2-0.1
					c-0.2-0.1-0.4-0.2-0.8-0.2c-0.4,0-0.7,0-0.9,0.2c-0.2,0.2-0.2,0.5-0.2,0.7C216,141.9,216.1,142.4,215.9,142.9z"/>
			</g>
		</g>
		<g>
			<g>
				<path class="st2" d="M225.2,139c2.8-2.3,4.6-6,4.5-9.7c0-3-1.2-6.1-3.2-8.3c-2-2.2-4.9-3.7-7.9-4c-0.1,0-0.2,0-0.3,0
					c-1,0.1-1.4,1.1-1.1,1.5c0.2,0.2,0.5,0.4,0.8,0.5c0.4,0.1,0.7,0.2,1.1,0.3c0.9,0.2,1.7,0.5,2.5,1c2.2,1.2,4.3,3.1,5.2,5.6
					c1,2.6,0.7,5.7-0.5,8.1c-1.3,2.4-3.4,4.3-6,5.3c-1.3,0.4-2.7,0.6-4.2,0.6c-0.3,0-0.7,0-1-0.1c-0.2-0.1-1.1-0.2-2-0.5
					c-0.9-0.4-1.9-0.9-2.3-1.2c-0.5-0.4-0.8-0.8-1.3-1.2l-1.6,1.5c2.1,2.2,5,3.6,8,3.9C219.3,142.4,222.7,141.2,225.2,139z"/>
				<path class="st2" d="M207.6,121.5c-0.4,0.5-0.8,1-1,1.5l-0.4,0.6c-0.7,1.2-1.2,2.6-1.5,4c-0.3,1.7-0.2,3.4,0.1,5.1
					c0.1,0.6,0.3,1.1,0.5,1.7c0.6,1.5,1.5,2.7,2.6,3.7l1.6-1.5c-0.2-0.2-0.4-0.3-0.6-0.5c-0.2-0.2-0.3-0.4-0.5-0.6
					c-0.4-0.6-0.7-1.1-0.9-1.8c-0.2-0.4-0.2-0.7-0.4-1.1c-0.1-0.4-0.2-0.8-0.2-1.1l-0.1-0.9c0-0.3,0-0.6,0-0.9
					c0.2-3.2,1.7-6.3,4.2-8.3c0.7-0.6,1.5-1.1,2.4-1.5c0.7-0.3,1.9-0.5,2.5-0.9c0.1-0.1,0.2-0.1,0.3-0.2c0.4-0.2,0.7-0.5,0.8-0.9
					c0.1-0.4-0.1-0.7-0.7-0.8c-0.9-0.2-2,0.1-3,0.3c-1.1,0.4-2.2,1-3.1,1.6C209.2,119.9,208.4,120.7,207.6,121.5z"/>
			</g>
		</g>
	</g>
	<g>
		<g>
			<path class="st2" d="M215.1,150.4c-0.8,0-1.6-0.1-2.3-0.1c-1.3-0.1-2.6,0-3.8,0c0,0,0,0-0.1,0c-0.2,0.1-0.3,1.1-0.2,1.6
				c0.1,0.4,0.3,0.5,0.5,0.6c0.2,0,0.5,0.1,0.7,0.1c0.7,0.1,1.3-0.1,2-0.1c1.4,0,2.8,0.6,4.3,0.3c0.4,0,0.7,0,1.1-0.1
				c0.1,0,0.2-0.1,0.3,0c0.1,0,0.9-0.2,1.2-0.2c0.2,0,0.3,0.1,0.5,0l0-2.1c-0.6,0-1.3,0-1.9,0C216.5,150.3,215.8,150.4,215.1,150.4z
				"/>
			<path class="st2" d="M223,150.4c-0.1,0-0.3,0-0.4,0.1c-0.1,0-0.1,0-0.2,0c-0.3,0-0.6-0.1-0.9-0.1c-0.4,0-0.7,0-1.1-0.2
				c-0.1,0-0.2-0.1-0.4-0.1c-0.3,0-0.6,0.1-1,0.1l0,2.1c0.1-0.1,0.3-0.1,0.4-0.1c0.2,0,0.3,0,0.5,0.1c0.2,0,0.4,0.1,0.6,0.1
				c0.2,0,0.3,0,0.5,0.1c0.8,0.3,1.7,0.3,2.5,0.2c0.2,0,0.5-0.1,0.7-0.1c0.2,0,0.5,0.1,0.7-0.2c0-0.1,0.1-0.1,0.1-0.2
				c0.1-0.2,0.2-0.4,0.2-0.8c0-0.4,0-0.7-0.2-0.9c-0.2-0.2-0.4-0.2-0.7-0.2C224,150.4,223.5,150.5,223,150.4z"/>
		</g>
	</g>
</g>
</svg>
