<?xml version="1.0" encoding="UTF-8"?>
<!DOCTYPE svg PUBLIC "-//W3C//DTD SVG 1.1//EN"
  "http://www.w3.org/Graphics/SVG/1.1/DTD/svg11.dtd">
<svg width="28px" height="28px" viewBox="0 0 28 28" version="1.1" xmlns="http://www.w3.org/2000/svg" xmlns:xlink="http://www.w3.org/1999/xlink">
    <!-- Generator: Sketch 46.2 (44496) - http://www.bohemiancoding.com/sketch -->
    <title>alert</title>
    <desc>Created with Sketch.</desc>
    <defs></defs>
    <g id="Pages" stroke="none" stroke-width="1" fill="none" fill-rule="evenodd">
        <g id="Comments" transform="translate(-251.000000, -2071.000000)" fill="#FFFFFF">
            <g id="alert" transform="translate(251.000000, 2071.000000)">
                <path d="M14,28 C21.7269367,28 28,21.7269367 28,14 C28,6.27306329 21.7269367,0 14,0 C6.27306329,0 0,6.27306329 0,14 C0,21.7269367 6.27306329,28 14,28 Z M14,3 C20.0577846,3 25,7.94221538 25,14 C25,20.0577846 20.0577846,25 14,25 C7.94221538,25 3,20.0577846 3,14 C3,7.94221538 7.94221538,3 14,3 Z" id="Fill-1" opacity="0.200000003"></path>
                <path d="M15,17.2307692 L13,17.2307692 L13,8 L15,8 L15,17.2307692 Z M15,20 L13,20 L13,18.1538462 L15,18.1538462 L15,20 Z" id="Path"></path>
            </g>
        </g>
    </g>
</svg>
