<?xml version="1.0" encoding="UTF-8" standalone="no"?>
<svg width="21px" height="36px" viewBox="0 0 21 36" version="1.1" xmlns="http://www.w3.org/2000/svg" xmlns:xlink="http://www.w3.org/1999/xlink">
    <!-- Generator: Sketch 47.1 (45422) - http://www.bohemiancoding.com/sketch -->
    <title>arrow_down</title>
    <desc>Created with Sketch.</desc>
    <defs></defs>
    <g id="Tablet-768" stroke="none" stroke-width="1" fill="none" fill-rule="evenodd">
        <g id="Mama-Rescue---Tablet" transform="translate(-373.000000, -943.000000)" fill="currentColor">
            <path d="M400.656243,960.31405 L391.664095,951.342149 C391.207351,950.88595 390.474658,950.88595 390.017914,951.342149 C389.56117,951.798347 389.56117,952.530165 390.017914,952.986364 L397.021322,959.981406 L367.170407,959.981406 C366.523353,959.981406 366,960.504133 366,961.150414 C366,961.796695 366.523353,962.319422 367.170407,962.319422 L397.021322,962.319422 L390.017914,969.295456 C389.56117,969.751654 389.56117,970.483472 390.017914,970.939671 C390.246286,971.16777 390.541266,971.28182 390.845762,971.28182 C391.150258,971.28182 391.445239,971.16777 391.673611,970.939671 L400.665759,961.958265 C401.112987,961.511571 401.112987,960.770249 400.656243,960.31405 Z" id="arrow_down" transform="translate(383.500000, 961.140910) rotate(-270.000000) translate(-383.500000, -961.140910) "></path>
        </g>
    </g>
</svg>
