<?xml version="1.0" encoding="UTF-8" standalone="no"?>
<svg width="35px" height="21px" viewBox="0 0 35 21" version="1.1" xmlns="http://www.w3.org/2000/svg" xmlns:xlink="http://www.w3.org/1999/xlink">
    <!-- Generator: Sketch 47.1 (45422) - http://www.bohemiancoding.com/sketch -->
    <title>arrow_left_large</title>
    <desc>Created with Sketch.</desc>
    <defs></defs>
    <g id="Symbols" stroke="none" stroke-width="1" fill="none" fill-rule="evenodd">
        <g id="arrow_left_large" fill="#F37B58">
            <path d="M34.6562432,9.31405025 L25.6640953,0.342148785 C25.2073513,-0.114049595 24.4746578,-0.114049595 24.0179138,0.342148785 C23.5611697,0.798347164 23.5611697,1.5301654 24.0179138,1.98636378 L31.021322,8.9814056 L1.17040654,8.9814056 C0.523352519,8.9814056 0,9.50413291 0,10.1504139 C0,10.796695 0.523352519,11.3194223 1.17040654,11.3194223 L31.021322,11.3194223 L24.0179138,18.2954558 C23.5611697,18.7516542 23.5611697,19.4834725 24.0179138,19.9396708 C24.2462858,20.16777 24.5412663,20.2818196 24.8457623,20.2818196 C25.1502583,20.2818196 25.4452388,20.16777 25.6736108,19.9396708 L34.6657587,10.9582652 C35.1129872,10.511571 35.1129872,9.77024863 34.6562432,9.31405025 Z"></path>
        </g>
    </g>
</svg>