<svg xmlns="http://www.w3.org/2000/svg" width="32" height="25" viewBox="0 0 32 25">
    <path fill="currentColor" fill-rule="evenodd" d="M.397 11.995c.08-.529.147-1.06.243-1.586C1.516 5.657 5.46 1.76 10.23.96c3.915-.656 7.352.363 10.301 3.023.06.054.13.097.222.164l-2.701 2.94c-1.72-1.651-3.75-2.458-6.113-2.344-1.712.082-3.242.684-4.583 1.758-2.733 2.188-3.713 5.96-2.398 9.215 1.293 3.195 4.486 5.253 7.995 4.987 4.023-.305 6.395-3.28 7.016-5.585h-6.765v-3.685h11.122c.005.104.013.203.013.301.001.712-.04 1.426.01 2.134.093 1.333-.26 2.563-.831 3.73-1.924 3.932-5.068 6.29-9.384 6.947-3.898.594-7.317-.555-10.152-3.299C2.022 19.35.877 17.01.518 14.294c-.037-.279-.08-.557-.12-.835v-1.464zm31.178-.608v1.941h-2.266v2.303c-.63 0-1.217.006-1.802-.01-.053-.002-.144-.149-.146-.23-.013-.558-.006-1.117-.006-1.676v-.368H25.1v-1.941h2.242V9.143h1.945v2.244h2.287z"/>
</svg>
