<?xml version="1.0" encoding="UTF-8" standalone="no"?>
<svg width="31px" height="35px" viewBox="0 0 31 35" version="1.1" xmlns="http://www.w3.org/2000/svg" xmlns:xlink="http://www.w3.org/1999/xlink">
    <!-- Generator: Sketch 47.1 (45422) - http://www.bohemiancoding.com/sketch -->
    <title>footer_icon_tw</title>
    <desc>Created with Sketch.</desc>
    <defs></defs>
    <g id="footer_icon_tw">
        <path d="M12.6439026,23.9868149 C10.1047002,23.7576312 8.41064089,22.4961769 7.47060777,20.1082488 C8.31763741,20.2462499 9.09864024,20.224351 9.91529756,20.0246175 C7.16707309,19.1934019 5.70957843,17.3886274 5.52149635,14.5260965 C5.95746194,14.6897722 6.33702177,14.8626982 6.73393722,14.9725705 C7.12953213,15.0824428 7.54267131,15.1292612 7.9648656,15.1673955 C6.63716078,14.1591005 5.83087911,12.8559249 5.63298733,11.2159589 C5.48772835,10.01265 5.71448328,8.86389973 6.33985149,7.78896397 C9.34105296,11.3143153 13.1298599,13.2616216 17.7645647,13.5795338 C17.7285329,13.2208443 17.680805,12.9012331 17.6660904,12.5803004 C17.5823307,10.7421112 18.2590112,9.21673692 19.6495358,8.03815877 C21.4962113,6.47276233 24.1652036,6.32626599 26.1937359,7.64152371 C26.5170786,7.85126267 26.8051441,8.11744803 27.0979259,8.37079608 C27.2071531,8.46537683 27.2977041,8.49539348 27.4437177,8.4621675 C28.4888278,8.22373338 29.4890396,7.87051863 30.4245452,7.34135724 C30.5058525,7.29548275 30.5914987,7.25715961 30.6763903,7.21751498 C30.6863886,7.21298416 30.7024237,7.22129066 30.7410966,7.2278981 C30.3247504,8.47349454 29.5484637,9.42704223 28.4671332,10.1474417 C28.4720381,10.1670753 28.4769429,10.1870864 28.4818478,10.2069087 C28.8117932,10.1491408 29.1443797,10.104399 29.4703635,10.0298294 C29.8071002,9.95299429 30.139498,9.85633691 30.4685002,9.75099547 C30.7956158,9.64640917 31.1159402,9.52049028 31.4717304,9.43629264 C31.229129,9.74986277 30.9961487,10.071173 30.7418512,10.3749264 C30.1947719,11.0284964 29.5743085,11.6056089 28.8974394,12.1243872 C28.8180186,12.1851756 28.7565193,12.3278963 28.7595377,12.4302172 C28.8108499,14.0362021 28.6120149,15.6129256 28.1813315,17.1562343 C27.8183727,18.4577108 27.3018544,19.6999092 26.6330971,20.8781097 C26.0943183,21.8269378 25.4731004,22.7155438 24.7573698,23.5380755 C23.1838566,25.3464369 21.2917169,26.7124774 19.0696317,27.6127881 C17.336711,28.3148755 15.5311607,28.6769631 13.6642998,28.7428487 C12.3482912,28.7892896 11.0407717,28.7062247 9.7528716,28.4309777 C8.45346399,28.1532765 7.19480435,27.7434266 6.01160392,27.1281797 C5.55224597,26.889368 5.10382961,26.6299789 4.65107435,26.379085 C4.61598581,26.3596403 4.5841043,26.3349096 4.49676026,26.2763865 C7.53323891,26.5569195 10.2199641,25.8227387 12.6439026,23.9868149 Z" id="Shape" fill="#FFF"></path>
    </g>
</svg>
