<?xml version="1.0" encoding="UTF-8" standalone="no"?>
<svg width="28px" height="28px" viewBox="0 0 28 28" version="1.1" xmlns="http://www.w3.org/2000/svg" xmlns:xlink="http://www.w3.org/1999/xlink">
    <!-- Generator: Sketch 47.1 (45422) - http://www.bohemiancoding.com/sketch -->
    <title>footer_icon_insta</title>
    <desc>Created with Sketch.</desc>
    <defs></defs>
    <g id="Ui-Design" stroke="none" stroke-width="1" fill="none" fill-rule="evenodd">
        <g id="Landing-Page" transform="translate(-437.000000, -4967.000000)">
            <g id="Group-8">
                <g id="Group-6" transform="translate(0.000000, 3720.000000)">
                    <g id="Group-29" transform="translate(0.000000, 1108.000000)">
                        <g id="Group-28">
                            <g id="Group-26" transform="translate(311.000000, 80.000000)">
                                <g id="Social-Icons" transform="translate(0.000000, 55.000000)">
                                    <g id="footer_icon_insta" transform="translate(122.000000, 0.000000)">
                                        <rect id="Rectangle-3-Copy-2" fill="#000000" opacity="0" x="0" y="0" width="36" height="36"></rect>
                                        <g id="Group-2" transform="translate(4.496760, 4.500000)" fill-rule="nonzero" fill="#E0E6EB">
                                            <path d="M26.231958,21.8481429 C26.6974798,20.5000714 26.7439463,19.0932857 26.7589355,17.6918571 C26.7872009,15.0497143 26.8032607,12.4069286 26.763004,9.76564286 C26.7439463,8.53264286 26.6925548,7.28057143 26.4621493,6.07435714 C25.9531589,3.40521429 24.3792928,1.58228571 21.784448,0.6885 C20.4467689,0.227785714 19.0502036,0.181071429 17.6596341,0.165857143 C15.0099716,0.136714286 12.3594526,0.121285714 9.71000432,0.161785714 C8.47789201,0.180857143 7.22629374,0.231857143 6.02159025,0.464785714 C3.3685017,0.977571429 1.55159642,2.54528571 0.658882444,5.12957143 C0.19314656,6.47742857 0.146680037,7.884 0.131690836,9.28585714 C0.103425486,11.928 0.0873656279,14.5707857 0.127622339,17.2120714 C0.146680037,18.4450714 0.219056464,19.6911429 0.426121567,20.904 C0.771729713,22.932 1.85223696,24.5290714 3.62224745,25.6146429 C4.97191793,26.4428571 6.50467078,26.7227143 8.06012157,26.7670714 C9.86096699,26.8187143 11.7774434,26.8352143 13.4904949,26.8673571 L13.4904949,26.8300714 C14.7752836,26.8300714 15.9607152,26.868 17.2061037,26.8191429 C18.4388584,26.7705 19.6771805,26.7467143 20.881884,26.5137857 C23.5351867,26.0007857 25.3394582,24.4326429 26.231958,21.8481429 Z M13.4367479,20.3445 C9.6138593,20.3438571 6.59225054,17.286 6.59524838,13.4215714 C6.59824622,9.65421429 9.67916939,6.63085714 13.5123363,6.63428571 C17.2562104,6.63728571 20.295378,9.7125 20.295378,13.4978571 C20.2951638,17.3003571 17.2448615,20.3451429 13.4367479,20.3445 Z M18.9525597,6.36021429 C18.9568423,5.48035714 19.6679728,4.76764286 20.5478389,4.76207143 C21.4613237,4.7565 22.1628183,5.44585714 22.1662444,6.35185714 C22.1692422,7.25014286 21.4538291,7.97892857 20.5696803,7.97764286 C19.6842468,7.97614286 18.9491336,7.24114286 18.9525597,6.36021429 Z M13.454735,9.04157143 C15.8915508,9.04564286 17.8964634,11.0605714 17.8893971,13.4987143 C17.882759,15.9396429 15.8699235,17.9453571 13.435249,17.937 C10.9956495,17.9288571 8.99373465,15.9167143 9.00080099,13.4792143 C9.00786732,11.0372143 11.0147072,9.0375 13.454735,9.04157143 Z" id="Combined-Shape"></path>
                                        </g>
                                    </g>
                                </g>
                            </g>
                        </g>
                    </g>
                </g>
            </g>
        </g>
    </g>
</svg>