<?xml version="1.0" encoding="UTF-8" standalone="no"?>
<svg width="24px" height="29px" viewBox="0 0 24 29" version="1.1" xmlns="http://www.w3.org/2000/svg" xmlns:xlink="http://www.w3.org/1999/xlink">
    <!-- Generator: Sketch 47.1 (45422) - http://www.bohemiancoding.com/sketch -->
    <title>footer_icon_yelp</title>
    <desc>Created with Sketch.</desc>
    <defs></defs>
    <g id="Ui-Design" stroke="none" stroke-width="1" fill="none" fill-rule="evenodd">
        <g id="Landing-Page" transform="translate(-500.000000, -5365.000000)">
            <g id="Group-6" transform="translate(0.000000, 5228.000000)">
                <g id="Group-29">
                    <g id="Group-28">
                        <g id="Group-26" transform="translate(311.000000, 80.000000)">
                            <g id="Social-Icons" transform="translate(0.000000, 55.000000)">
                                <g id="footer_icon_yelp" transform="translate(183.000000, 0.000000)">
                                    <rect id="Rectangle-3-Copy-2" fill="#000000" opacity="0" x="0" y="0" width="36" height="36"></rect>
                                    <path d="M20.8154194,21.0697176 C20.3157909,21.5555716 20.7382629,22.4393803 20.7382629,22.4393803 L24.4993311,28.4956919 C24.4993311,28.4956919 25.1168048,29.2941176 25.6517923,29.2941176 C26.1892783,29.2941176 26.7201026,28.8684334 26.7201026,28.8684334 L29.6935097,24.7696698 C29.6935097,24.7696698 29.9929765,24.2526604 29.9999151,23.799675 C30.0106285,23.1554742 29.0037094,22.9790336 29.0037094,22.9790336 L21.9643834,20.7989006 C21.9642171,20.7991148 21.2745274,20.6225672 20.8154194,21.0697176 Z M19.8538492,17.7546185 C20.2058092,18.3577972 21.1766949,18.1820619 21.1766949,18.1820619 L28.039722,16.1549121 C28.039722,16.1549121 28.9749188,15.7704432 29.1084565,15.2579824 C29.2394443,14.7453572 28.9541451,14.1267755 28.9541451,14.1267755 L25.6743934,10.2226127 C25.6743934,10.2226127 25.3901786,9.72895335 24.8004334,9.67929141 C24.150156,9.6233258 23.7500314,10.4186842 23.7500314,10.4186842 L19.8722357,16.5855896 C19.8722357,16.5856444 19.5294429,17.1997861 19.8538492,17.7546185 Z M16.98804,15.6105615 C17.8613794,15.4020783 18,14.1717547 18,14.1717547 L17.9406249,3.93288886 C17.9406249,3.93288886 17.8089206,2.66982638 17.223666,2.32743198 C16.3057226,1.78741052 16.0336389,2.06932889 15.7706409,2.10712641 L9.61330805,4.32569891 C9.61330805,4.32569891 9.01029348,4.51917676 8.6962432,5.00707741 C8.24779291,5.69840263 9.15196205,6.71063735 9.15196205,6.71063735 L15.5518963,15.1699503 C15.5518372,15.1698935 16.1835137,15.8033004 16.98804,15.6105615 Z M15.4282397,19.4583149 C15.4485883,18.6782738 14.5254592,18.2097664 14.5254592,18.2097664 L8.41483463,15.007129 C8.41483463,15.007129 7.50934892,14.6198032 7.06975549,14.8897353 C6.73293178,15.0961706 6.43453035,15.4698537 6.40536092,15.8001389 L6.00738435,20.8825889 C6.00738435,20.8825889 5.94769292,21.7631809 6.16773349,22.1638123 C6.47933921,22.7324216 7.50458663,22.3363937 7.50458663,22.3363937 L14.6382935,20.7005756 C14.9154266,20.5073338 15.4013983,20.4899858 15.4282397,19.4583149 Z M17.3712609,21.7032749 C16.7129666,21.3893869 15.9251657,22.0394718 15.9251657,22.0394718 L10.7900049,27.288225 C10.7900049,27.288225 10.1493386,28.0907976 10.3122395,28.5836413 C10.4657735,29.0455877 10.7198992,29.2751566 11.0794449,29.4369351 L16.2365392,30.9484162 C16.2365392,30.9484162 16.861788,31.0689263 17.3351897,30.941556 C18.007272,30.7606558 17.883468,29.7838271 17.883468,29.7838271 L18,22.6772949 C17.9999417,22.6774029 17.9737029,21.9928017 17.3712609,21.7032749 Z" id="yelp" fill="#E0E6EB" fill-rule="nonzero"></path>
                                </g>
                            </g>
                        </g>
                    </g>
                </g>
            </g>
        </g>
    </g>
</svg>