<?xml version="1.0" encoding="UTF-8" standalone="no"?>
<svg width="18px" height="18px" viewBox="0 0 18 18" version="1.1" xmlns="http://www.w3.org/2000/svg" xmlns:xlink="http://www.w3.org/1999/xlink">
    <!-- Generator: Sketch 47.1 (45422) - http://www.bohemiancoding.com/sketch -->
    <title>icon_close</title>
    <desc>Created with Sketch.</desc>
    <defs></defs>
    <g id="Symbols" stroke="none" stroke-width="1" fill="none" fill-rule="evenodd">
        <g id="icon_close" transform="translate(-9.000000, -9.000000)" fill="#414548">
            <path d="M28.5848827,16.5891653 L19.4022697,16.5891653 L19.4022697,7.40655219 C19.4022697,6.6289461 18.7733236,6 17.9957175,6 C17.2181114,6 16.5891653,6.6289461 16.5891653,7.40655219 L16.5891653,16.5891653 L7.40655219,16.5891653 C6.6289461,16.5891653 6,17.2181114 6,17.9842821 C6,18.7618882 6.6289461,19.3908343 7.40655219,19.3908343 L16.5891653,19.3908343 L16.5891653,28.5734474 C16.5891653,29.3510534 17.2181114,29.9799995 17.9957175,29.9799995 C18.7733236,29.9799995 19.4022697,29.3510534 19.4022697,28.5734474 L19.4022697,19.3908343 L28.5848827,19.3908343 C29.3624888,19.3908343 29.9914349,18.7618882 29.9914349,17.9842821 C29.9914349,17.206676 29.3624888,16.5891653 28.5848827,16.5891653 Z" transform="translate(17.995717, 17.990000) rotate(-315.000000) translate(-17.995717, -17.990000) "></path>
        </g>
    </g>
</svg>