<?xml version="1.0" encoding="UTF-8" standalone="no"?>
<svg  fill="#FFFFFF" width="22px" height="22px" viewBox="0 0 22 22" version="1.1" xmlns="http://www.w3.org/2000/svg" xmlns:xlink="http://www.w3.org/1999/xlink">
    <g transform="translate(-541.000000, -32.000000)">
        <g transform="translate(258.000000, 22.000000)">
            <g transform="translate(0.000000, 5.000000)">
                <g transform="translate(232.000000, 4.000000)">
                    <path d="M73,19.3862901 C73,21.3822684 71.3576799,23 69.3313641,23 L54.6686359,23 C52.6482277,23 51,21.3764492 51,19.3862901 L51,7.71301807 C51,5.72285902 52.6482277,4.09930822 54.6686359,4.09930822 L57.0435016,4.09930822 C57.4452202,4.09930822 57.7701396,4.41936304 57.7701396,4.81506717 C57.7701396,5.21077131 57.4452202,5.53082613 57.0435016,5.53082613 L54.6686359,5.53082613 C53.4457573,5.53082613 52.4473684,6.5142673 52.4473684,7.71883725 L52.4473684,19.3979285 C52.4473684,20.6024985 53.4457573,21.5859396 54.6686359,21.5859396 L69.3313641,21.5859396 C70.5542427,21.5859396 71.5526316,20.6024985 71.5526316,19.3979285 L71.5526316,7.72465643 C71.5526316,6.52008648 70.5542427,5.53664531 69.3313641,5.53664531 L66.9564984,5.53664531 C66.5547798,5.53664531 66.2298604,5.21659049 66.2298604,4.82088635 C66.2298604,4.42518221 66.5547798,4.1051274 66.9564984,4.1051274 L69.3313641,4.1051274 C71.3517723,4.1051274 73,5.7286782 73,7.71883725 L73,19.3862901 Z M67.4837314,11.4221487 C67.7672975,11.7014693 67.7672975,12.149546 67.4719162,12.4230474 L62.5154178,17.3053382 C62.243667,17.5730204 61.7651493,17.5730204 61.4933984,17.3053382 L56.5369001,12.4230474 C56.253334,12.1437268 56.253334,11.6956501 56.5369001,11.4163295 C56.6786831,11.2766692 56.8618195,11.2068391 57.0508635,11.2068391 C57.2399076,11.2068391 57.423044,11.2766692 57.564827,11.4163295 L61.2866315,15.082412 L61.2866315,1.71575896 C61.2866315,1.32005482 61.611551,1 62.0132696,1 C62.4149881,1 62.7399076,1.32005482 62.7399076,1.71575896 L62.7399076,15.0882312 L66.4617121,11.4221487 C66.7452781,11.1428281 67.2001654,11.1428281 67.4837314,11.4221487 Z" transform="translate(62.000000, 12.000000) rotate(-90.000000) translate(-62.000000, -12.000000) "></path>
                </g>
            </g>
        </g>
    </g>
</svg>