<?xml version="1.0" encoding="UTF-8" standalone="no"?>
<svg width="32px" height="41px" viewBox="0 0 32 41" version="1.1" xmlns="http://www.w3.org/2000/svg" xmlns:xlink="http://www.w3.org/1999/xlink">
    <!-- Generator: Sketch 47.1 (45422) - http://www.bohemiancoding.com/sketch -->
    <title>icon_book</title>
    <desc>Created with Sketch.</desc>
    <defs></defs>
    <g id="Ui-Design" stroke="none" stroke-width="1" fill="none" fill-rule="evenodd">
        <g id="Book-Success" transform="translate(-483.000000, -617.000000)" fill-rule="nonzero" fill="#F37B58">
            <g id="Group-6" transform="translate(0.000000, 582.000000)">
                <g id="Group-4" transform="translate(301.000000, 0.000000)">
                    <g id="icon_blog" transform="translate(162.000000, 20.000000)">
                        <path d="M51.9917249,16.0344615 C51.9917249,15.4625641 51.5365917,15 50.9738816,15 L26.2808379,15 C22.8135506,15 20,17.8678974 20,21.3833846 L20,49.6166154 C20,53.1405128 22.8218257,56 26.2808379,56 L50.9821567,56 C51.5448668,56 52,55.5374359 52,54.9655385 L52,26.7407179 C52,26.1688205 51.5448668,25.7062564 50.9821567,25.7062564 L26.2808379,25.7062564 C23.9389708,25.7062564 22.0274114,23.7634872 22.0274114,21.3833846 C22.0274114,19.0032821 23.9389708,17.0605128 26.2808379,17.0605128 L50.9821567,17.0605128 C51.5365917,17.0605128 51.9917249,16.5979487 51.9917249,16.0344615 Z M26.2808379,27.7667692 L49.9643134,27.7667692 L49.9643134,53.9394872 L26.2808379,53.9394872 C23.9389708,53.9394872 22.0274114,51.9967179 22.0274114,49.6166154 L22.0274114,26.0763077 C23.1445565,27.1275897 24.6423584,27.7667692 26.2808379,27.7667692 Z M26.6283941,20.4498462 L49.8070856,20.4498462 C50.3697957,20.4498462 50.8249289,20.9124103 50.8249289,21.4843077 C50.8249289,22.0562051 50.3697957,22.5187692 49.8070856,22.5187692 L26.6283941,22.5187692 C26.065684,22.5187692 25.6105508,22.0562051 25.6105508,21.4843077 C25.6105508,20.9124103 26.065684,20.4498462 26.6283941,20.4498462 Z" id="icon_book"></path>
                    </g>
                </g>
            </g>
        </g>
    </g>
</svg>