<?xml version="1.0" encoding="UTF-8" standalone="no"?>
<svg width="72px" height="72px" viewBox="0 0 72 72" version="1.1" xmlns="http://www.w3.org/2000/svg" xmlns:xlink="http://www.w3.org/1999/xlink">
    <!-- Generator: Sketch 47.1 (45422) - http://www.bohemiancoding.com/sketch -->
    <title>icon_team</title>
    <desc>Created with Sketch.</desc>
    <defs></defs>
    <g id="Ui-Design" stroke="none" stroke-width="1" fill="none" fill-rule="evenodd">
        <g id="Book-Success" transform="translate(-905.000000, -602.000000)">
            <g id="Group-6" transform="translate(0.000000, 582.000000)">
                <g id="Group-5" transform="translate(743.000000, 0.000000)">
                    <g id="icon_team" transform="translate(162.000000, 20.000000)">
                        <circle id="Oval" fill="#FFFFFF" cx="36" cy="36" r="36"></circle>
                        <path d="M48.7614379,15 C45.6968954,15 43.2075163,17.4747559 43.2075163,20.5212965 C43.2075163,23.5678371 45.6968954,26.042593 48.7614379,26.042593 C51.8259804,26.042593 54.3153595,23.5678371 54.3153595,20.5212965 C54.3153595,17.4747559 51.8259804,15 48.7614379,15 Z M48.7614379,23.8537295 C46.9101307,23.8537295 45.4093137,22.3617287 45.4093137,20.5212965 C45.4093137,18.6808643 46.9101307,17.1888635 48.7614379,17.1888635 C50.6127451,17.1888635 52.1135621,18.6808643 52.1135621,20.5212965 C52.1135621,22.3617287 50.6127451,23.8537295 48.7614379,23.8537295 Z M36,26.042593 C32.9354575,26.042593 30.4460784,23.5678371 30.4460784,20.5212965 C30.4460784,17.4747559 32.9354575,15 36,15 C39.0645425,15 41.5539216,17.4747559 41.5539216,20.5212965 C41.5539216,23.5678371 39.0645425,26.042593 36,26.042593 Z M36,17.1888635 C34.1486928,17.1888635 32.6478758,18.6897985 32.6478758,20.5212965 C32.6478758,22.3617287 34.1486928,23.8537295 36,23.8537295 C37.8513072,23.8537295 39.3521242,22.3617287 39.3521242,20.5212965 C39.3521242,18.6808643 37.8513072,17.1888635 36,17.1888635 Z M52.4910131,27.1593601 C55.5285948,27.1593601 58,29.6073135 58,32.6270517 L58,39.6224808 C58,41.6415957 56.8676471,43.490962 55.1062092,44.4379805 L55.1062092,53.6401413 C55.1062092,56.0434241 53.1380719,58 50.7205882,58 L45.7238562,58 C45.1127451,58 44.6184641,57.5086225 44.6184641,56.9011012 C44.6184641,56.2935799 45.1127451,55.8022024 45.7238562,55.8022024 L50.7205882,55.8022024 C51.9248366,55.8022024 52.9044118,54.8283815 52.9044118,53.6312071 L52.9044118,43.7500519 C52.9044118,43.294411 53.1919935,42.8834407 53.623366,42.7226262 C54.9264706,42.249117 55.7982026,41.007272 55.7982026,39.6403491 L55.7982026,32.64492 C55.7982026,30.8312903 54.3153595,29.3571577 52.4910131,29.3571577 L47.7638889,29.3571577 C47.1527778,29.3571577 46.6584967,28.8657802 46.6584967,28.2582589 C46.6584967,27.6507376 47.1527778,27.1593601 47.7638889,27.1593601 L52.4910131,27.1593601 Z M33.501634,57.9731976 C31.0841503,57.9731976 29.1160131,56.0166216 29.1070261,53.6133389 L29.1070261,44.4379805 C27.3455882,43.490962 26.2132353,41.6415957 26.2132353,39.6224808 L26.2132353,32.6270517 C26.2132353,29.6073135 28.6846405,27.1504259 31.7222222,27.1504259 L40.2687908,27.1504259 C43.3063725,27.1504259 45.7777778,29.6073135 45.7777778,32.6270517 L45.7777778,39.6224808 C45.7777778,41.6415957 44.6454248,43.490962 42.8839869,44.4379805 L42.8839869,53.6133389 C42.8839869,56.0166216 40.9158497,57.9731976 38.498366,57.9731976 L33.501634,57.9731976 Z M28.4240196,39.6224808 C28.4240196,40.9894037 29.2957516,42.2312487 30.6168301,42.7047579 C31.0482026,42.8655724 31.3357843,43.2765427 31.3357843,43.7321837 L31.3357843,53.6133389 C31.3357843,54.8105132 32.3153595,55.7843341 33.5196078,55.7843341 L38.5163399,55.7843341 C39.7205882,55.7843341 40.7001634,54.8105132 40.7001634,53.6133389 L40.7001634,43.7321837 C40.7001634,43.2765427 40.9877451,42.8655724 41.4191176,42.7047579 C42.7132353,42.2312487 43.5849673,40.9894037 43.5849673,39.6224808 L43.5849673,32.6270517 C43.5849673,30.813422 42.1021242,29.3392894 40.2777778,29.3392894 L31.7312092,29.3392894 C29.9068627,29.3392894 28.4240196,30.813422 28.4240196,32.6270517 L28.4240196,39.6224808 Z M28.7924837,20.5212965 C28.7924837,23.5678371 26.2941176,26.042593 23.2385621,26.042593 C20.1740196,26.042593 17.6846405,23.5678371 17.6846405,20.5212965 C17.6846405,17.4747559 20.1740196,15 23.2385621,15 C26.3031046,15 28.7924837,17.4747559 28.7924837,20.5212965 Z M19.8864379,20.5212965 C19.8864379,22.3617287 21.3872549,23.8537295 23.2385621,23.8537295 C25.0898693,23.8537295 26.5906863,22.3617287 26.5906863,20.5212965 C26.5906863,18.6808643 25.0898693,17.1888635 23.2385621,17.1888635 C21.3872549,17.1888635 19.8864379,18.6897985 19.8864379,20.5212965 Z M21.2794118,57.9731976 C18.8619281,57.9731976 16.8937908,56.0166216 16.8937908,53.6044047 L16.8937908,44.4290463 C15.1323529,43.4820278 14,41.6326615 14,39.6135466 L14,32.6181176 C14,29.5983794 16.4714052,27.1414918 19.5089869,27.1414918 L24.2271242,27.1414918 C24.8382353,27.1414918 25.3325163,27.6328693 25.3325163,28.2403906 C25.3325163,28.8479119 24.8382353,29.3392894 24.2271242,29.3392894 L19.5179739,29.3392894 C17.6936275,29.3392894 16.2107843,30.813422 16.2107843,32.6270517 L16.2107843,39.6224808 C16.2107843,40.9983378 17.0825163,42.2312487 18.376634,42.7047579 C18.8080065,42.8655724 19.0955882,43.2765427 19.0955882,43.7321837 L19.0955882,53.6044047 C19.0955882,54.8015791 20.0751634,55.7754 21.2794118,55.7754 L26.2761438,55.7754 C26.8872549,55.7754 27.3815359,56.2667775 27.3815359,56.8742988 C27.3815359,57.4818201 26.8872549,57.9731976 26.2761438,57.9731976 L21.2794118,57.9731976 Z" id="stick-man-2" fill="#F37B58" fill-rule="nonzero"></path>
                    </g>
                </g>
            </g>
        </g>
    </g>
</svg>