<svg xmlns="http://www.w3.org/2000/svg" width="31" height="31" viewBox="0 0 31 31">
    <path fill="#FFF" fill-rule="nonzero" d="M6.282 20.607c3.07 3.655 6.764 6.532 10.98 8.569 1.606.758 3.753 1.657 6.146 1.811.148.007.29.013.438.013 1.606 0 2.895-.552 3.946-1.69a.14.14 0 0 0 .026-.032c.374-.45.8-.854 1.244-1.284.303-.29.613-.591.91-.9 1.373-1.426 1.373-3.237-.013-4.618l-3.876-3.86c-.657-.681-1.444-1.041-2.27-1.041-.825 0-1.618.36-2.295 1.034l-2.308 2.3c-.213-.122-.432-.232-.638-.334a7.983 7.983 0 0 1-.71-.386c-2.102-1.33-4.01-3.064-5.835-5.293-.922-1.162-1.541-2.139-1.973-3.134a38.743 38.743 0 0 0 1.722-1.677c.193-.2.393-.398.593-.597.696-.694 1.07-1.497 1.07-2.313 0-.816-.367-1.619-1.07-2.312l-1.922-1.915c-.225-.224-.438-.443-.657-.668-.426-.436-.87-.886-1.31-1.29C7.818.34 7.037 0 6.212 0c-.819 0-1.605.34-2.295.996L1.504 3.398a4.928 4.928 0 0 0-1.476 3.16c-.123 1.536.16 3.167.896 5.14 1.128 3.05 2.83 5.883 5.358 8.909zM1.601 6.693A3.392 3.392 0 0 1 2.626 4.51l2.399-2.39c.374-.359.786-.545 1.186-.545.393 0 .793.186 1.16.559.433.398.839.815 1.277 1.259l.671.68 1.921 1.915c.4.398.607.803.607 1.2 0 .4-.207.804-.607 1.202-.2.2-.4.405-.6.604-.599.604-1.16 1.175-1.779 1.721l-.032.033c-.535.533-.451 1.04-.322 1.426.006.019.012.032.019.051.496 1.188 1.186 2.319 2.263 3.668 1.934 2.377 3.972 4.22 6.216 5.64.277.18.574.32.851.462.258.129.496.25.71.386.025.012.044.025.07.038.213.11.42.16.626.16.515 0 .85-.327.96-.436l2.412-2.402c.374-.373.78-.572 1.18-.572.49 0 .89.302 1.141.572l3.888 3.867c.774.77.767 1.605-.02 2.421-.27.29-.554.565-.857.855-.451.436-.922.886-1.347 1.393-.742.797-1.625 1.17-2.766 1.17-.11 0-.226-.007-.336-.013-2.115-.135-4.081-.957-5.558-1.658-4.01-1.933-7.531-4.676-10.452-8.158-2.405-2.884-4.023-5.569-5.094-8.446-.664-1.767-.915-3.187-.812-4.478z"/>
</svg>
